<svg width="23" height="23" viewBox="0 0 23 23" fill="none" xmlns="http://www.w3.org/2000/svg">
<path d="M1.5 9.54594C0.671573 9.54594 0 10.2175 0 11.0459C0 11.8744 0.671573 12.5459 1.5 12.5459V11.0459V9.54594ZM22.5607 12.1066C23.1464 11.5208 23.1464 10.5711 22.5607 9.98528L13.0147 0.439342C12.4289 -0.146444 11.4792 -0.146444 10.8934 0.439342C10.3076 1.02513 10.3076 1.97488 10.8934 2.56066L19.3787 11.0459L10.8934 19.5312C10.3076 20.117 10.3076 21.0668 10.8934 21.6525C11.4792 22.2383 12.4289 22.2383 13.0147 21.6525L22.5607 12.1066ZM1.5 11.0459V12.5459H21.5V11.0459V9.54594H1.5V11.0459Z" fill="#18A0FB"/>
</svg>
