<svg width="40" height="40" viewBox="0 0 40 40" fill="none" xmlns="http://www.w3.org/2000/svg">
<path fill-rule="evenodd" clip-rule="evenodd" d="M12.4417 1.77663C14.3967 1.68663 15.0201 1.66663 20.0001 1.66663C24.9801 1.66663 25.6034 1.68829 27.5567 1.77663C29.5101 1.86496 30.8434 2.17663 32.0101 2.62829C33.2317 3.08996 34.3401 3.81163 35.2567 4.74496C36.1901 5.65996 36.9101 6.76663 37.3701 7.98996C37.8234 9.15663 38.1334 10.49 38.2234 12.44C38.3134 14.3983 38.3334 15.0216 38.3334 20C38.3334 24.98 38.3117 25.6033 38.2234 27.5583C38.1351 29.5083 37.8234 30.8416 37.3701 32.0083C36.9101 33.2318 36.1889 34.3403 35.2567 35.2566C34.3401 36.19 33.2317 36.91 32.0101 37.37C30.8434 37.8233 29.5101 38.1333 27.5601 38.2233C25.6034 38.3133 24.9801 38.3333 20.0001 38.3333C15.0201 38.3333 14.3967 38.3116 12.4417 38.2233C10.4917 38.135 9.15841 37.8233 7.99175 37.37C6.76828 36.9099 5.65978 36.1887 4.74341 35.2566C3.81071 34.3411 3.08894 33.2331 2.62841 32.01C2.17675 30.8433 1.86675 29.51 1.77675 27.56C1.68675 25.6016 1.66675 24.9783 1.66675 20C1.66675 15.02 1.68841 14.3966 1.77675 12.4433C1.86508 10.49 2.17675 9.15663 2.62841 7.98996C3.08962 6.76676 3.81195 5.65881 4.74508 4.74329C5.66015 3.81079 6.76753 3.08903 7.99008 2.62829C9.15675 2.17663 10.4901 1.86663 12.4401 1.77663H12.4417ZM27.4084 5.07663C25.4751 4.98829 24.8951 4.96996 20.0001 4.96996C15.1051 4.96996 14.5251 4.98829 12.5917 5.07663C10.8034 5.15829 9.83341 5.45663 9.18675 5.70829C8.33175 6.04163 7.72008 6.43663 7.07841 7.07829C6.47016 7.67004 6.00205 8.39043 5.70841 9.18663C5.45675 9.83329 5.15841 10.8033 5.07675 12.5916C4.98841 14.525 4.97008 15.105 4.97008 20C4.97008 24.895 4.98841 25.475 5.07675 27.4083C5.15841 29.1966 5.45675 30.1666 5.70841 30.8133C6.00175 31.6083 6.47008 32.33 7.07841 32.9216C7.67008 33.53 8.39175 33.9983 9.18675 34.2916C9.83341 34.5433 10.8034 34.8416 12.5917 34.9233C14.5251 35.0116 15.1034 35.03 20.0001 35.03C24.8967 35.03 25.4751 35.0116 27.4084 34.9233C29.1967 34.8416 30.1667 34.5433 30.8134 34.2916C31.6684 33.9583 32.2801 33.5633 32.9217 32.9216C33.5301 32.33 33.9984 31.6083 34.2917 30.8133C34.5434 30.1666 34.8417 29.1966 34.9234 27.4083C35.0117 25.475 35.0301 24.895 35.0301 20C35.0301 15.105 35.0117 14.525 34.9234 12.5916C34.8417 10.8033 34.5434 9.83329 34.2917 9.18663C33.9584 8.33163 33.5634 7.71996 32.9217 7.07829C32.33 6.47008 31.6096 6.00198 30.8134 5.70829C30.1667 5.45663 29.1967 5.15829 27.4084 5.07663V5.07663ZM17.6584 25.6516C18.9662 26.196 20.4224 26.2695 21.7783 25.8595C23.1342 25.4495 24.3057 24.5815 25.0928 23.4037C25.8798 22.2259 26.2335 20.8114 26.0935 19.4018C25.9535 17.9922 25.3284 16.6749 24.3251 15.675C23.6855 15.0358 22.9121 14.5463 22.0606 14.2419C21.2092 13.9374 20.3008 13.8256 19.4009 13.9143C18.501 14.0031 17.632 14.2903 16.8564 14.7552C16.0808 15.2201 15.418 15.8512 14.9156 16.603C14.4132 17.3549 14.0837 18.2088 13.9509 19.1032C13.8182 19.9977 13.8853 20.9104 14.1476 21.7758C14.41 22.6412 14.8609 23.4376 15.4679 24.1078C16.075 24.778 16.8231 25.3053 17.6584 25.6516ZM13.3367 13.3366C14.2118 12.4616 15.2506 11.7675 16.3939 11.2939C17.5372 10.8203 18.7626 10.5766 20.0001 10.5766C21.2376 10.5766 22.463 10.8203 23.6062 11.2939C24.7495 11.7675 25.7884 12.4616 26.6634 13.3366C27.5385 14.2117 28.2326 15.2505 28.7061 16.3938C29.1797 17.5371 29.4235 18.7625 29.4235 20C29.4235 21.2375 29.1797 22.4628 28.7061 23.6061C28.2326 24.7494 27.5385 25.7882 26.6634 26.6633C24.8962 28.4305 22.4993 29.4233 20.0001 29.4233C17.5008 29.4233 15.104 28.4305 13.3367 26.6633C11.5695 24.8961 10.5767 22.4992 10.5767 20C10.5767 17.5007 11.5695 15.1039 13.3367 13.3366V13.3366ZM31.5134 11.98C31.7303 11.7754 31.9038 11.5294 32.0239 11.2566C32.144 10.9837 32.2081 10.6896 32.2124 10.3915C32.2168 10.0934 32.1613 9.79754 32.0492 9.52131C31.9372 9.24508 31.7708 8.99414 31.56 8.78336C31.3492 8.57257 31.0983 8.40622 30.8221 8.29415C30.5458 8.18209 30.2499 8.12658 29.9519 8.13093C29.6538 8.13528 29.3596 8.19938 29.0868 8.31945C28.8139 8.43952 28.568 8.61312 28.3634 8.82996C27.9656 9.25167 27.7478 9.81183 27.7562 10.3915C27.7647 10.9712 27.9987 11.5248 28.4087 11.9347C28.8186 12.3446 29.3722 12.5787 29.9519 12.5871C30.5315 12.5956 31.0917 12.3778 31.5134 11.98V11.98Z" fill="black" fill-opacity="0.5"/>
</svg>
