<svg width="104" height="35" viewBox="0 0 104 35" fill="none" xmlns="http://www.w3.org/2000/svg">
<path d="M29.232 30.708C31.728 30.708 33.744 30.216 35.28 29.232L35.532 29.52C33.468 32.376 30.9 33.96 27.828 34.272C27.18 34.344 26.616 34.38 26.136 34.38C25.68 34.38 25.14 34.356 24.516 34.308C23.916 34.284 23.064 34.128 21.96 33.84C20.856 33.552 19.884 33.252 19.044 32.94C18.204 32.652 17.232 32.256 16.128 31.752C15.024 31.272 14.112 30.84 13.392 30.456C12.672 30.096 11.808 29.652 10.8 29.124C9.816 28.62 8.952 28.188 8.208 27.828C7.464 27.468 6.744 27.156 6.048 26.892C4.08 26.1 2.064 25.704 2.89083e-06 25.704V25.344H0.468003C1.092 25.344 1.62 25.128 2.052 24.696C2.508 24.264 2.748 23.724 2.772 23.076V3.13198C2.748 2.48398 2.508 1.94398 2.052 1.51198C1.62 1.07998 1.092 0.863977 0.468003 0.863977H2.89083e-06V0.503978H10.944L10.908 0.863977H10.548C9.636 0.863977 8.952 1.23598 8.496 1.97998C8.28 2.31598 8.172 2.69998 8.172 3.13198V24.012C8.172 24.804 8.328 25.356 8.64 25.668C8.952 25.956 9.3 26.16 9.684 26.28C18.708 29.232 25.224 30.708 29.232 30.708ZM28.3778 -2.21729e-05C32.8178 -2.21729e-05 36.3458 1.17598 38.9618 3.52798C41.5778 5.87998 42.8858 9.07198 42.8858 13.104C42.8858 17.136 41.5778 20.328 38.9618 22.68C36.3458 25.032 32.8178 26.208 28.3778 26.208C23.9378 26.208 20.4098 25.032 17.7938 22.68C15.1778 20.328 13.8698 17.136 13.8698 13.104C13.8698 10.44 14.4578 8.12398 15.6338 6.15598C16.8338 4.16398 18.5258 2.63998 20.7098 1.58398C22.8938 0.527978 25.4498 -2.21729e-05 28.3778 -2.21729e-05ZM22.0778 21.6C23.6378 23.664 25.7378 24.696 28.3778 24.696C31.0178 24.696 33.1058 23.664 34.6418 21.6C36.2018 19.512 36.9818 16.68 36.9818 13.104C36.9818 10.752 36.6338 8.69998 35.9378 6.94798C35.2418 5.19598 34.2458 3.85198 32.9498 2.91598C31.6538 1.97998 30.1298 1.51198 28.3778 1.51198C25.7378 1.51198 23.6378 2.55598 22.0778 4.64398C20.5418 6.70798 19.7738 9.52798 19.7738 13.104C19.7738 16.68 20.5418 19.512 22.0778 21.6ZM73.474 14.004H72.934C72.358 14.004 71.914 14.148 71.602 14.436C71.29 14.7 71.134 15.096 71.134 15.624V21.564C70.198 22.788 68.65 23.868 66.49 24.804C64.33 25.74 61.906 26.208 59.218 26.208C55.114 26.208 51.814 25.032 49.318 22.68C46.846 20.304 45.61 17.112 45.61 13.104C45.61 9.07198 46.846 5.87998 49.318 3.52798C51.814 1.17598 55.186 -2.21729e-05 59.434 -2.21729e-05C61.354 -2.21729e-05 63.214 0.191978 65.014 0.575979C66.814 0.935979 68.266 1.39198 69.37 1.94398L69.442 8.13598H69.118C68.494 5.80798 67.426 4.12798 65.914 3.09598C64.402 2.03998 62.602 1.51198 60.514 1.51198C57.61 1.51198 55.378 2.55598 53.818 4.64398C52.258 6.70798 51.478 9.55198 51.478 13.176C51.478 16.776 52.186 19.596 53.602 21.636C55.042 23.676 57.07 24.696 59.686 24.696C61.582 24.696 63.166 24.156 64.438 23.076C65.062 22.524 65.518 21.876 65.806 21.132V15.624C65.806 15.096 65.638 14.7 65.302 14.436C64.99 14.148 64.534 14.004 63.934 14.004H63.358V13.644H73.474V14.004ZM89.3838 -2.21729e-05C93.8238 -2.21729e-05 97.3518 1.17598 99.9678 3.52798C102.584 5.87998 103.892 9.07198 103.892 13.104C103.892 17.136 102.584 20.328 99.9678 22.68C97.3518 25.032 93.8238 26.208 89.3838 26.208C84.9438 26.208 81.4158 25.032 78.7998 22.68C76.1838 20.328 74.8758 17.136 74.8758 13.104C74.8758 10.44 75.4638 8.12398 76.6398 6.15598C77.8398 4.16398 79.5318 2.63998 81.7158 1.58398C83.8998 0.527978 86.4558 -2.21729e-05 89.3838 -2.21729e-05ZM83.0838 21.6C84.6438 23.664 86.7438 24.696 89.3838 24.696C92.0238 24.696 94.1118 23.664 95.6478 21.6C97.2078 19.512 97.9878 16.68 97.9878 13.104C97.9878 10.752 97.6398 8.69998 96.9438 6.94798C96.2478 5.19598 95.2518 3.85198 93.9558 2.91598C92.6598 1.97998 91.1358 1.51198 89.3838 1.51198C86.7438 1.51198 84.6438 2.55598 83.0838 4.64398C81.5478 6.70798 80.7798 9.52798 80.7798 13.104C80.7798 16.68 81.5478 19.512 83.0838 21.6Z" fill="white"/>
</svg>
