<svg width="74" height="74" viewBox="0 0 74 74" fill="none" xmlns="http://www.w3.org/2000/svg">
<path d="M61.8571 57.6507C65.1781 53.655 67.4879 48.9181 68.5911 43.8409C69.6943 38.7637 69.5584 33.4954 68.1949 28.4818C66.8314 23.4682 64.2805 18.8567 60.7578 15.0375C57.2352 11.2183 52.8445 8.30371 47.9572 6.54027C43.07 4.77683 37.8298 4.21643 32.6802 4.90648C27.5305 5.59653 22.6228 7.51672 18.3722 10.5046C14.1216 13.4925 10.6531 17.4603 8.26023 22.0721C5.86736 26.684 4.62046 31.8044 4.62501 37.0001C4.62676 44.5531 7.28842 51.8643 12.143 57.6507L12.0967 57.69C12.2586 57.8843 12.4436 58.0508 12.6101 58.2427C12.8182 58.4809 13.0425 58.7052 13.2576 58.9365C13.9051 59.6395 14.5711 60.3147 15.2695 60.9483C15.4822 61.1426 15.7019 61.323 15.917 61.508C16.657 62.1462 17.4178 62.7521 18.2063 63.3163C18.3081 63.3857 18.4006 63.4759 18.5023 63.5476V63.5198C23.9184 67.3312 30.3796 69.3768 37.0023 69.3768C43.6251 69.3768 50.0862 67.3312 55.5023 63.5198V63.5476C55.6041 63.4759 55.6943 63.3857 55.7983 63.3163C56.5846 62.7498 57.3477 62.1462 58.0877 61.508C58.3028 61.323 58.5225 61.1403 58.7352 60.9483C59.4336 60.3124 60.0996 59.6395 60.7471 58.9365C60.9621 58.7052 61.1841 58.4809 61.3946 58.2427C61.5588 58.0508 61.7461 57.8843 61.908 57.6877L61.8571 57.6507ZM37 18.5001C39.0582 18.5001 41.0701 19.1104 42.7814 20.2539C44.4927 21.3973 45.8265 23.0225 46.6141 24.924C47.4018 26.8255 47.6078 28.9179 47.2063 30.9365C46.8048 32.9551 45.8137 34.8093 44.3583 36.2647C42.903 37.72 41.0488 38.7111 39.0302 39.1126C37.0116 39.5142 34.9192 39.3081 33.0177 38.5205C31.1162 37.7328 29.491 36.399 28.3475 34.6877C27.2041 32.9764 26.5938 30.9645 26.5938 28.9063C26.5938 26.1464 27.6901 23.4996 29.6417 21.548C31.5932 19.5965 34.2401 18.5001 37 18.5001V18.5001ZM18.5162 57.6507C18.5563 54.6143 19.7903 51.7158 21.9511 49.5823C24.1119 47.4487 27.0259 46.2516 30.0625 46.2501H43.9375C46.9742 46.2516 49.8881 47.4487 52.0489 49.5823C54.2098 51.7158 55.4437 54.6143 55.4838 57.6507C50.4122 62.221 43.8271 64.7503 37 64.7503C30.1729 64.7503 23.5879 62.221 18.5162 57.6507V57.6507Z" fill="black"/>
</svg>
